<?xml version="1.0" standalone="no"?>
<!DOCTYPE svg PUBLIC "-//W3C//DTD SVG 20010904//EN"
 "http://www.w3.org/TR/2001/REC-SVG-20010904/DTD/svg10.dtd">
<svg version="1.0" xmlns="http://www.w3.org/2000/svg"
 width="700.000000pt" height="700.000000pt" viewBox="0 0 700.000000 700.000000"
 preserveAspectRatio="xMidYMid meet">
<metadata>
Created by potrace 1.11, written by Peter Selinger 2001-2013
</metadata>
<g transform="translate(0.000000,700.000000) scale(0.100000,-0.100000)"
fill="#000000" stroke="none">
<path d="M5047 5744 c-1 -1 -31 -4 -67 -8 -151 -14 -335 -63 -365 -96 -9 -10
-19 -36 -22 -57 -4 -33 -1 -43 25 -71 35 -37 68 -41 147 -17 120 37 202 49
330 49 111 0 139 -4 190 -24 80 -30 154 -105 185 -186 29 -77 36 -244 14 -359
-29 -154 -109 -405 -124 -388 -4 5 -37 55 -75 113 -329 505 -835 843 -1436
960 -216 42 -548 44 -759 5 -14 -3 -41 -7 -60 -10 -134 -21 -361 -97 -532
-178 -290 -138 -585 -377 -779 -632 -254 -334 -406 -714 -446 -1115 -10 -95
-10 -375 0 -460 67 -584 349 -1101 801 -1469 80 -65 273 -196 304 -205 11 -4
25 -13 31 -20 9 -11 -8 -22 -86 -54 -459 -191 -790 -194 -924 -9 -58 80 -83
232 -65 387 10 78 47 226 82 323 20 56 37 114 36 129 -2 75 -82 116 -144 75
-26 -18 -40 -41 -65 -109 -99 -264 -134 -559 -88 -732 36 -134 132 -264 240
-326 199 -112 519 -100 878 35 52 19 97 35 101 35 3 0 67 29 142 65 l137 65
109 -35 c111 -36 235 -67 323 -81 28 -4 55 -8 60 -9 146 -29 507 -24 675 10
14 2 39 7 56 10 99 16 338 90 444 137 116 52 319 163 365 200 6 4 53 40 105
80 161 121 359 331 467 493 58 86 97 149 95 155 0 3 5 12 12 20 20 24 71 128
111 224 83 201 137 423 160 651 5 59 6 327 0 370 -2 17 -6 57 -10 90 -3 33 -7
67 -10 75 -2 8 -6 31 -9 50 -11 76 -39 181 -83 311 l-45 137 51 119 c103 242
153 439 165 651 4 76 -17 223 -40 283 -87 221 -268 333 -552 343 -29 1 -54 1
-55 0z"/>
</g>
</svg>
